<svg width="44" height="47" viewBox="0 0 44 47" fill="none" xmlns="http://www.w3.org/2000/svg">
<mask id="path-1-outside-1_20233_21" maskUnits="userSpaceOnUse" x="-1" y="-1" width="47" height="49" fill="black">
<rect fill="white" x="-1" y="-1" width="47" height="49"/>
<path d="M24.944 46.768C21.4027 46.768 18.1387 46.2133 15.152 45.104C12.208 43.952 9.62667 42.3307 7.408 40.24C5.232 38.1493 3.52533 35.696 2.288 32.88C1.09333 30.064 0.496 26.9707 0.496 23.6C0.496 20.2293 1.09333 17.136 2.288 14.32C3.52533 11.504 5.25333 9.05066 7.472 6.96C9.69067 4.86933 12.2933 3.26933 15.28 2.16C18.2667 1.008 21.552 0.431999 25.136 0.431999C29.104 0.431999 32.6667 1.09333 35.824 2.416C39.024 3.73866 41.712 5.65866 43.888 8.176L37.232 14.32C35.6107 12.6133 33.84 11.3547 31.92 10.544C30 9.69067 27.9093 9.264 25.648 9.264C23.472 9.264 21.488 9.60533 19.696 10.288C17.904 10.9707 16.3467 11.952 15.024 13.232C13.744 14.512 12.7413 16.0267 12.016 17.776C11.3333 19.5253 10.992 21.4667 10.992 23.6C10.992 25.6907 11.3333 27.6107 12.016 29.36C12.7413 31.1093 13.744 32.6453 15.024 33.968C16.3467 35.248 17.8827 36.2293 19.632 36.912C21.424 37.5947 23.3867 37.936 25.52 37.936C27.568 37.936 29.552 37.616 31.472 36.976C33.4347 36.2933 35.3333 35.1627 37.168 33.584L43.056 41.072C40.624 42.9067 37.7867 44.3147 34.544 45.296C31.344 46.2773 28.144 46.768 24.944 46.768ZM33.584 39.728V22.896H43.056V41.072L33.584 39.728Z"/>
</mask>
<path d="M24.944 46.768C21.4027 46.768 18.1387 46.2133 15.152 45.104C12.208 43.952 9.62667 42.3307 7.408 40.24C5.232 38.1493 3.52533 35.696 2.288 32.88C1.09333 30.064 0.496 26.9707 0.496 23.6C0.496 20.2293 1.09333 17.136 2.288 14.32C3.52533 11.504 5.25333 9.05066 7.472 6.96C9.69067 4.86933 12.2933 3.26933 15.28 2.16C18.2667 1.008 21.552 0.431999 25.136 0.431999C29.104 0.431999 32.6667 1.09333 35.824 2.416C39.024 3.73866 41.712 5.65866 43.888 8.176L37.232 14.32C35.6107 12.6133 33.84 11.3547 31.92 10.544C30 9.69067 27.9093 9.264 25.648 9.264C23.472 9.264 21.488 9.60533 19.696 10.288C17.904 10.9707 16.3467 11.952 15.024 13.232C13.744 14.512 12.7413 16.0267 12.016 17.776C11.3333 19.5253 10.992 21.4667 10.992 23.6C10.992 25.6907 11.3333 27.6107 12.016 29.36C12.7413 31.1093 13.744 32.6453 15.024 33.968C16.3467 35.248 17.8827 36.2293 19.632 36.912C21.424 37.5947 23.3867 37.936 25.52 37.936C27.568 37.936 29.552 37.616 31.472 36.976C33.4347 36.2933 35.3333 35.1627 37.168 33.584L43.056 41.072C40.624 42.9067 37.7867 44.3147 34.544 45.296C31.344 46.2773 28.144 46.768 24.944 46.768ZM33.584 39.728V22.896H43.056V41.072L33.584 39.728Z" fill="#5BC8AF"/>
<path d="M15.152 45.104L14.7876 46.0352L14.7957 46.0384L14.8038 46.0414L15.152 45.104ZM7.408 40.24L6.71514 40.9611L6.7222 40.9678L7.408 40.24ZM2.288 32.88L1.36734 33.2706L1.37248 33.2823L2.288 32.88ZM2.288 14.32L1.37241 13.9177L1.36742 13.9294L2.288 14.32ZM7.472 6.96L8.1578 7.68779L8.1578 7.68779L7.472 6.96ZM15.28 2.16L15.6282 3.09749L15.6399 3.093L15.28 2.16ZM35.824 2.416L35.4376 3.33834L35.442 3.34016L35.824 2.416ZM43.888 8.176L44.5663 8.9108L45.2775 8.25429L44.6445 7.52205L43.888 8.176ZM37.232 14.32L36.507 15.0087L37.1859 15.7234L37.9103 15.0548L37.232 14.32ZM31.92 10.544L31.5139 11.4578L31.5224 11.4616L31.531 11.4652L31.92 10.544ZM15.024 13.232L14.3286 12.5134L14.3227 12.5191L14.3169 12.5249L15.024 13.232ZM12.016 17.776L11.0923 17.393L11.0882 17.4027L11.0844 17.4125L12.016 17.776ZM12.016 29.36L11.0844 29.7235L11.0882 29.7333L11.0923 29.743L12.016 29.36ZM15.024 33.968L14.3054 34.6634L14.3168 34.6752L14.3286 34.6866L15.024 33.968ZM19.632 36.912L19.2684 37.8436L19.276 37.8465L19.632 36.912ZM31.472 36.976L31.7883 37.9248L31.8005 37.9205L31.472 36.976ZM37.168 33.584L37.9541 32.9659L37.308 32.1443L36.5158 32.826L37.168 33.584ZM43.056 41.072L43.6582 41.8703L44.4727 41.2559L43.8421 40.4539L43.056 41.072ZM34.544 45.296L34.2543 44.3389L34.2508 44.3399L34.544 45.296ZM33.584 39.728H32.584V40.5961L33.4435 40.7181L33.584 39.728ZM33.584 22.896V21.896H32.584V22.896H33.584ZM43.056 22.896H44.056V21.896H43.056V22.896ZM43.056 41.072L42.9155 42.0621L44.056 42.2239V41.072H43.056ZM24.944 45.768C21.5083 45.768 18.3637 45.2302 15.5002 44.1666L14.8038 46.0414C17.9136 47.1965 21.297 47.768 24.944 47.768V45.768ZM15.5164 44.1728C12.6871 43.0656 10.2159 41.5119 8.0938 39.5122L6.7222 40.9678C9.03744 43.1495 11.7289 44.8384 14.7876 46.0352L15.5164 44.1728ZM8.10083 39.5189C6.02106 37.5207 4.38924 35.1763 3.20352 32.4777L1.37248 33.2823C2.66142 36.2157 4.44294 38.778 6.71517 40.9611L8.10083 39.5189ZM3.20858 32.4894C2.07144 29.809 1.496 26.8502 1.496 23.6H-0.504C-0.504 27.0911 0.115231 30.319 1.36742 33.2705L3.20858 32.4894ZM1.496 23.6C1.496 20.3498 2.07144 17.391 3.20858 14.7105L1.36742 13.9294C0.115231 16.881 -0.504 20.1089 -0.504 23.6H1.496ZM3.20352 14.7223C4.38739 12.028 6.03766 9.68561 8.1578 7.68779L6.7862 6.23221C4.469 8.41572 2.66328 10.98 1.37248 13.9177L3.20352 14.7223ZM8.1578 7.68779C10.2747 5.69301 12.7612 4.16231 15.6282 3.09742L14.9318 1.22257C11.8255 2.37635 9.10662 4.04565 6.7862 6.23221L8.1578 7.68779ZM15.6399 3.093C18.4988 1.99027 21.6604 1.432 25.136 1.432V-0.568001C21.4436 -0.568001 18.0345 0.025729 14.9201 1.22699L15.6399 3.093ZM25.136 1.432C28.9922 1.432 32.4205 2.07443 35.4376 3.33833L36.2104 1.49366C32.9128 0.112234 29.2158 -0.568001 25.136 -0.568001V1.432ZM35.442 3.34016C38.5038 4.60572 41.0617 6.43553 43.1315 8.82995L44.6445 7.52205C42.3623 4.8818 39.5442 2.87161 36.206 1.49183L35.442 3.34016ZM43.2097 7.4412L36.5537 13.5852L37.9103 15.0548L44.5663 8.9108L43.2097 7.4412ZM37.957 13.6312C36.2531 11.8377 34.3712 10.4935 32.309 9.62275L31.531 11.4652C33.3088 12.2158 34.9682 13.389 36.507 15.0087L37.957 13.6312ZM32.3261 9.63019C30.2687 8.71579 28.0384 8.264 25.648 8.264V10.264C27.7802 10.264 29.7313 10.6655 31.5139 11.4578L32.3261 9.63019ZM25.648 8.264C23.3666 8.264 21.2599 8.62211 19.34 9.35351L20.052 11.2225C21.7161 10.5886 23.5774 10.264 25.648 10.264V8.264ZM19.34 9.35351C17.4268 10.0823 15.7527 11.1352 14.3286 12.5134L15.7194 13.9506C16.9407 12.7688 18.3812 11.859 20.052 11.2225L19.34 9.35351ZM14.3169 12.5249C12.9399 13.9019 11.8655 15.5281 11.0923 17.393L12.9397 18.159C13.6172 16.5252 14.5481 15.1221 15.7311 13.9391L14.3169 12.5249ZM11.0844 17.4125C10.3508 19.2923 9.992 21.3591 9.992 23.6H11.992C11.992 21.5743 12.3159 19.7583 12.9476 18.1395L11.0844 17.4125ZM9.992 23.6C9.992 25.801 10.3517 27.8459 11.0844 29.7235L12.9476 28.9965C12.315 27.3754 11.992 25.5803 11.992 23.6H9.992ZM11.0923 29.743C11.8643 31.605 12.9355 33.2478 14.3054 34.6634L15.7426 33.2726C14.5525 32.0429 13.6184 30.6136 12.9397 28.977L11.0923 29.743ZM14.3286 34.6866C15.7486 36.0608 17.398 37.1137 19.2685 37.8436L19.9955 35.9804C18.3673 35.345 16.9447 34.4352 15.7194 33.2494L14.3286 34.6866ZM19.276 37.8465C21.1938 38.5771 23.2786 38.936 25.52 38.936V36.936C23.4947 36.936 21.6542 36.6123 19.988 35.9775L19.276 37.8465ZM25.52 38.936C27.6742 38.936 29.765 38.5991 31.7882 37.9247L31.1558 36.0273C29.339 36.6329 27.4618 36.936 25.52 36.936V38.936ZM31.8005 37.9205C33.8997 37.1903 35.9058 35.9893 37.8202 34.342L36.5158 32.826C34.7609 34.336 32.9696 35.3963 31.1435 36.0315L31.8005 37.9205ZM36.3819 34.2021L42.2699 41.6901L43.8421 40.4539L37.9541 32.9659L36.3819 34.2021ZM42.4538 40.2737C40.1257 42.0299 37.3969 43.3878 34.2543 44.3389L34.8337 46.2531C38.1765 45.2415 41.1223 43.7834 43.6582 41.8703L42.4538 40.2737ZM34.2508 44.3399C31.1414 45.2935 28.0401 45.768 24.944 45.768V47.768C28.2479 47.768 31.5466 47.2612 34.8372 46.2521L34.2508 44.3399ZM34.584 39.728V22.896H32.584V39.728H34.584ZM33.584 23.896H43.056V21.896H33.584V23.896ZM42.056 22.896V41.072H44.056V22.896H42.056ZM43.1965 40.0819L33.7245 38.7379L33.4435 40.7181L42.9155 42.0621L43.1965 40.0819Z" fill="#5BC8AF" mask="url(#path-1-outside-1_20233_21)"/>
</svg>
